<svg width="222" height="71" viewBox="0 0 222 71" fill="none" xmlns="http://www.w3.org/2000/svg">
<rect width="222" height="71" fill="white"/>
<path d="M55.8145 38.5056L58.252 31.4685H59.4824L56.3184 39.9998H55.3223L52.1641 31.4685H53.3887L55.8145 38.5056ZM64.2379 39.9998H63.1129V31.4685H64.2379V39.9998ZM73.5227 36.0564H69.8254V39.0798H74.1203V39.9998H68.7004V31.4685H74.0617V32.3943H69.8254V35.1365H73.5227V36.0564ZM79.7605 37.3103L79.9246 38.4353L80.1648 37.4216L81.8523 31.4685H82.8016L84.448 37.4216L84.6824 38.4529L84.8641 37.3044L86.1883 31.4685H87.3191L85.2508 39.9998H84.2254L82.4676 33.783L82.3328 33.1326L82.198 33.783L80.3758 39.9998H79.3504L77.2879 31.4685H78.4129L79.7605 37.3103ZM97.8027 31.4685L100.592 38.4294L103.381 31.4685H104.84V39.9998H103.715V36.6775L103.82 33.0916L101.02 39.9998H100.158L97.3633 33.1091L97.4746 36.6775V39.9998H96.3496V31.4685H97.8027ZM115.789 36.0095C115.789 36.8455 115.648 37.5759 115.367 38.2009C115.086 38.822 114.687 39.2966 114.171 39.6248C113.656 39.9529 113.054 40.1169 112.367 40.1169C111.695 40.1169 111.099 39.9529 110.58 39.6248C110.06 39.2927 109.656 38.822 109.367 38.2126C109.082 37.5994 108.935 36.8904 108.927 36.0857V35.4705C108.927 34.6501 109.07 33.9255 109.355 33.2966C109.64 32.6677 110.043 32.1873 110.562 31.8552C111.086 31.5193 111.683 31.3513 112.355 31.3513C113.039 31.3513 113.64 31.5173 114.16 31.8494C114.683 32.1775 115.086 32.656 115.367 33.2849C115.648 33.9099 115.789 34.6384 115.789 35.4705V36.0095ZM114.67 35.4587C114.67 34.447 114.466 33.6716 114.06 33.1326C113.654 32.5896 113.086 32.3181 112.355 32.3181C111.644 32.3181 111.084 32.5896 110.673 33.1326C110.267 33.6716 110.058 34.4216 110.046 35.3826V36.0095C110.046 36.99 110.252 37.7615 110.662 38.324C111.076 38.8826 111.644 39.1619 112.367 39.1619C113.093 39.1619 113.656 38.8982 114.054 38.3708C114.453 37.8396 114.658 37.0798 114.67 36.0916V35.4587ZM123.005 36.5486H121.001V39.9998H119.87V31.4685H122.695C123.655 31.4685 124.394 31.6873 124.909 32.1248C125.429 32.5623 125.689 33.199 125.689 34.0349C125.689 34.5662 125.544 35.0291 125.255 35.4236C124.97 35.8181 124.571 36.113 124.06 36.3083L126.064 39.9294V39.9998H124.857L123.005 36.5486ZM121.001 35.6287H122.73C123.288 35.6287 123.732 35.4841 124.06 35.1951C124.392 34.906 124.558 34.5193 124.558 34.0349C124.558 33.5076 124.4 33.1033 124.083 32.822C123.771 32.5408 123.318 32.3982 122.724 32.3943H121.001V35.6287ZM134.493 36.0564H130.796V39.0798H135.091V39.9998H129.671V31.4685H135.032V32.3943H130.796V35.1365H134.493V36.0564Z" fill="#333333"/>
<path fill-rule="evenodd" clip-rule="evenodd" d="M149 35.4998C149 35.2236 149.224 34.9998 149.5 34.9998L165.5 34.9998C165.776 34.9998 166 35.2236 166 35.4998C166 35.7759 165.776 35.9998 165.5 35.9998L149.5 35.9998C149.224 35.9998 149 35.7759 149 35.4998Z" fill="#333333"/>
<path fill-rule="evenodd" clip-rule="evenodd" d="M161.646 31.6462C161.842 31.4509 162.158 31.4509 162.354 31.6462L166.207 35.4998L162.354 39.3533C162.158 39.5486 161.842 39.5486 161.646 39.3533C161.451 39.158 161.451 38.8415 161.646 38.6462L164.793 35.4998L161.646 32.3533C161.451 32.158 161.451 31.8415 161.646 31.6462Z" fill="#333333"/>
</svg>
